<mxfile host="drawio-plugin" modified="2022-03-10T16:37:04.835Z" agent="5.0 (Macintosh; Intel Mac OS X 12_2_0) AppleWebKit/537.36 (KHTML, like Gecko) Chrome/89.0.4389.114 Safari/537.36" version="15.5.4" etag="n2vNjWpO7LhCvLOW6z_t" type="embed"><diagram id="63l3wO9TRTiEgLLA3DOq" name="Conceptual"><mxGraphModel dx="2676" dy="1626" grid="1" gridSize="10" guides="1" tooltips="1" connect="1" arrows="1" fold="1" page="1" pageScale="1" pageWidth="850" pageHeight="1100" math="0" shadow="0"><root><mxCell id="0"/><mxCell id="1" parent="0"/><mxCell id="2" value="" style="rounded=0;whiteSpace=wrap;html=1;" parent="1" vertex="1"><mxGeometry width="1070" height="1100" as="geometry"/></mxCell><mxCell id="21" value="" style="rounded=1;whiteSpace=wrap;html=1;" parent="1" vertex="1"><mxGeometry x="550" y="100" width="490" height="410" as="geometry"/></mxCell><mxCell id="3" value="About DFI-16 Task&lt;br&gt;&lt;br&gt;Conceptual view: &quot;deposit-balance-earn&quot; way through" style="text;html=1;strokeColor=none;fillColor=none;align=center;verticalAlign=middle;whiteSpace=wrap;rounded=0;" parent="1" vertex="1"><mxGeometry x="220" y="10" width="610" height="50" as="geometry"/></mxCell><mxCell id="4" value="" style="rounded=1;whiteSpace=wrap;html=1;" parent="1" vertex="1"><mxGeometry x="40" y="100" width="490" height="410" as="geometry"/></mxCell><mxCell id="15" style="edgeStyle=none;html=1;fontColor=#FFFFFF;" parent="1" source="5" target="9" edge="1"><mxGeometry relative="1" as="geometry"/></mxCell><mxCell id="5" value="User 1" style="shape=umlActor;verticalLabelPosition=bottom;verticalAlign=top;html=1;outlineConnect=0;" parent="1" vertex="1"><mxGeometry x="90" y="170" width="30" height="60" as="geometry"/></mxCell><mxCell id="14" style="edgeStyle=none;html=1;fontColor=#FFFFFF;" parent="1" source="6" target="10" edge="1"><mxGeometry relative="1" as="geometry"/></mxCell><mxCell id="6" value="User 2" style="shape=umlActor;verticalLabelPosition=bottom;verticalAlign=top;html=1;outlineConnect=0;" parent="1" vertex="1"><mxGeometry x="90" y="285" width="30" height="60" as="geometry"/></mxCell><mxCell id="16" style="edgeStyle=none;html=1;entryX=0;entryY=0.5;entryDx=0;entryDy=0;entryPerimeter=0;fontColor=#FFFFFF;" parent="1" source="7" target="11" edge="1"><mxGeometry relative="1" as="geometry"/></mxCell><mxCell id="7" value="User 3" style="shape=umlActor;verticalLabelPosition=bottom;verticalAlign=top;html=1;outlineConnect=0;" parent="1" vertex="1"><mxGeometry x="90" y="400" width="30" height="60" as="geometry"/></mxCell><mxCell id="17" style="edgeStyle=none;html=1;entryX=-0.024;entryY=0.559;entryDx=0;entryDy=0;entryPerimeter=0;fontColor=#FFFFFF;" parent="1" source="9" target="12" edge="1"><mxGeometry relative="1" as="geometry"><Array as="points"><mxPoint x="360" y="200"/></Array></mxGeometry></mxCell><mxCell id="9" value="&lt;font color=&quot;#ffffff&quot; style=&quot;background-color: rgb(42 , 42 , 42)&quot;&gt;BTC Wallet #usr1&amp;nbsp;&lt;/font&gt;" style="html=1;verticalLabelPosition=bottom;align=center;labelBackgroundColor=#ffffff;verticalAlign=top;strokeWidth=2;strokeColor=#0080F0;shadow=0;dashed=0;shape=mxgraph.ios7.icons.wallet;" parent="1" vertex="1"><mxGeometry x="210" y="183" width="42.5" height="34" as="geometry"/></mxCell><mxCell id="18" style="edgeStyle=none;html=1;fontColor=#FFFFFF;" parent="1" source="10" target="12" edge="1"><mxGeometry relative="1" as="geometry"/></mxCell><mxCell id="10" value="&lt;font color=&quot;#ffffff&quot; style=&quot;background-color: rgb(42 , 42 , 42)&quot;&gt;BTC Wallet #usr2&amp;nbsp;&lt;/font&gt;" style="html=1;verticalLabelPosition=bottom;align=center;labelBackgroundColor=#ffffff;verticalAlign=top;strokeWidth=2;strokeColor=#0080F0;shadow=0;dashed=0;shape=mxgraph.ios7.icons.wallet;" parent="1" vertex="1"><mxGeometry x="210" y="298" width="42.5" height="34" as="geometry"/></mxCell><mxCell id="19" style="edgeStyle=none;html=1;entryX=-0.047;entryY=0.441;entryDx=0;entryDy=0;entryPerimeter=0;fontColor=#FFFFFF;" parent="1" source="11" target="12" edge="1"><mxGeometry relative="1" as="geometry"><Array as="points"><mxPoint x="360" y="430"/></Array></mxGeometry></mxCell><mxCell id="11" value="&lt;font color=&quot;#ffffff&quot; style=&quot;background-color: rgb(42 , 42 , 42)&quot;&gt;BTC Wallet #usr3&amp;nbsp;&lt;/font&gt;" style="html=1;verticalLabelPosition=bottom;align=center;labelBackgroundColor=#ffffff;verticalAlign=top;strokeWidth=2;strokeColor=#0080F0;shadow=0;dashed=0;shape=mxgraph.ios7.icons.wallet;" parent="1" vertex="1"><mxGeometry x="210" y="413" width="42.5" height="34" as="geometry"/></mxCell><mxCell id="35" style="edgeStyle=none;html=1;entryX=0;entryY=0.5;entryDx=0;entryDy=0;fontColor=#FFFFFF;entryPerimeter=0;" parent="1" source="12" target="29" edge="1"><mxGeometry relative="1" as="geometry"><Array as="points"><mxPoint x="470" y="193"/></Array></mxGeometry></mxCell><mxCell id="41" style="edgeStyle=none;html=1;entryX=0.18;entryY=0.97;entryDx=0;entryDy=0;entryPerimeter=0;fontSize=12;fontColor=#FFFFFF;" parent="1" source="12" target="34" edge="1"><mxGeometry relative="1" as="geometry"><Array as="points"><mxPoint x="480" y="315"/><mxPoint x="699" y="315"/></Array></mxGeometry></mxCell><mxCell id="64" style="edgeStyle=none;html=1;entryX=0.18;entryY=0.97;entryDx=0;entryDy=0;entryPerimeter=0;fontSize=12;fontColor=#FFFFFF;" parent="1" source="12" target="52" edge="1"><mxGeometry relative="1" as="geometry"><Array as="points"><mxPoint x="480" y="480"/><mxPoint x="729" y="480"/></Array></mxGeometry></mxCell><mxCell id="12" value="&lt;font color=&quot;#ffffff&quot; style=&quot;background-color: rgb(42 , 42 , 42)&quot;&gt;Bitso BTC Wallet&lt;/font&gt;" style="html=1;verticalLabelPosition=bottom;align=center;labelBackgroundColor=#ffffff;verticalAlign=top;strokeWidth=2;strokeColor=#0080F0;shadow=0;dashed=0;shape=mxgraph.ios7.icons.wallet;" parent="1" vertex="1"><mxGeometry x="394" y="298" width="42.5" height="34" as="geometry"/></mxCell><mxCell id="13" value="Bitso Environment" style="text;html=1;strokeColor=none;fillColor=none;align=center;verticalAlign=middle;whiteSpace=wrap;rounded=0;labelBackgroundColor=#2A2A2A;fontColor=#FFFFFF;" parent="1" vertex="1"><mxGeometry x="60" y="110" width="120" height="30" as="geometry"/></mxCell><mxCell id="20" value="&lt;font color=&quot;#ffffff&quot; style=&quot;background-color: rgb(42 , 42 , 42)&quot;&gt;Bitso Treasury Wallet&lt;/font&gt;" style="html=1;verticalLabelPosition=bottom;align=center;labelBackgroundColor=#ffffff;verticalAlign=top;strokeWidth=2;strokeColor=#0080F0;shadow=0;dashed=0;shape=mxgraph.ios7.icons.wallet;" parent="1" vertex="1"><mxGeometry x="920" y="274" width="40" height="32" as="geometry"/></mxCell><mxCell id="31" value="" style="group" parent="1" vertex="1" connectable="0"><mxGeometry x="720" y="183" width="140" height="40" as="geometry"/></mxCell><mxCell id="27" value="Asset" style="rounded=0;whiteSpace=wrap;html=1;labelBackgroundColor=#2A2A2A;fontColor=#FFFFFF;" parent="31" vertex="1"><mxGeometry x="20" width="120" height="40" as="geometry"/></mxCell><mxCell id="29" value="" style="verticalLabelPosition=bottom;html=1;verticalAlign=top;align=center;strokeColor=none;fillColor=#00BEF2;shape=mxgraph.azure.service_endpoint;labelBackgroundColor=#2A2A2A;fontColor=#FFFFFF;" parent="31" vertex="1"><mxGeometry width="50" height="20" as="geometry"/></mxCell><mxCell id="32" value="" style="group" parent="1" vertex="1" connectable="0"><mxGeometry x="720" y="260" width="140" height="40" as="geometry"/></mxCell><mxCell id="33" value="Wallet" style="rounded=0;whiteSpace=wrap;html=1;labelBackgroundColor=#2A2A2A;fontColor=#FFFFFF;" parent="32" vertex="1"><mxGeometry x="20" width="120" height="40" as="geometry"/></mxCell><mxCell id="34" value="" style="verticalLabelPosition=bottom;html=1;verticalAlign=top;align=center;strokeColor=none;fillColor=#00BEF2;shape=mxgraph.azure.service_endpoint;labelBackgroundColor=#2A2A2A;fontColor=#FFFFFF;" parent="32" vertex="1"><mxGeometry width="50" height="20" as="geometry"/></mxCell><mxCell id="36" value="&amp;lt;get_balance&amp;gt;&lt;br&gt;&lt;font style=&quot;font-size: 10px&quot;&gt;&lt;i&gt;/api/v2/asset/balance&lt;/i&gt;&lt;/font&gt;" style="text;html=1;strokeColor=none;fillColor=none;align=center;verticalAlign=middle;whiteSpace=wrap;rounded=0;labelBackgroundColor=#2A2A2A;fontColor=#FFFFFF;" parent="1" vertex="1"><mxGeometry x="590" y="160" width="60" height="30" as="geometry"/></mxCell><mxCell id="37" style="edgeStyle=none;html=1;entryX=0.45;entryY=0.094;entryDx=0;entryDy=0;entryPerimeter=0;fontSize=10;fontColor=#FFFFFF;" parent="1" source="27" target="20" edge="1"><mxGeometry relative="1" as="geometry"><Array as="points"><mxPoint x="938" y="203"/></Array></mxGeometry></mxCell><mxCell id="40" value="Whalefin Environment" style="text;html=1;strokeColor=none;fillColor=none;align=center;verticalAlign=middle;whiteSpace=wrap;rounded=0;labelBackgroundColor=#2A2A2A;fontColor=#FFFFFF;" parent="1" vertex="1"><mxGeometry x="570" y="110" width="150" height="30" as="geometry"/></mxCell><mxCell id="42" value="&lt;font color=&quot;#cccccc&quot;&gt;&amp;lt;post_withdraw&amp;gt;&lt;br&gt;&lt;span style=&quot;font-size: 10px&quot;&gt;/api/v2/wallet/withdrawals&lt;/span&gt;&lt;/font&gt;" style="text;html=1;strokeColor=none;fillColor=none;align=center;verticalAlign=middle;whiteSpace=wrap;rounded=0;labelBackgroundColor=#2A2A2A;fontColor=#FFFFFF;" parent="1" vertex="1"><mxGeometry x="590" y="230" width="60" height="30" as="geometry"/></mxCell><mxCell id="48" value="&amp;lt;get_deposit_list&amp;gt;&lt;br&gt;&lt;span style=&quot;font-size: 10px&quot;&gt;&lt;i&gt;/api/v2/wallet/deposits&lt;/i&gt;&lt;/span&gt;" style="text;html=1;strokeColor=none;fillColor=none;align=center;verticalAlign=middle;whiteSpace=wrap;rounded=0;labelBackgroundColor=#2A2A2A;fontColor=#FFFFFF;" parent="1" vertex="1"><mxGeometry x="590" y="270" width="60" height="30" as="geometry"/></mxCell><mxCell id="50" value="" style="group" parent="1" vertex="1" connectable="0"><mxGeometry x="720" y="335" width="140" height="40" as="geometry"/></mxCell><mxCell id="51" value="Earn" style="rounded=0;whiteSpace=wrap;html=1;labelBackgroundColor=#2A2A2A;fontColor=#FFFFFF;" parent="50" vertex="1"><mxGeometry x="20" width="120" height="40" as="geometry"/></mxCell><mxCell id="52" value="" style="verticalLabelPosition=bottom;html=1;verticalAlign=top;align=center;strokeColor=none;fillColor=#00BEF2;shape=mxgraph.azure.service_endpoint;labelBackgroundColor=#2A2A2A;fontColor=#FFFFFF;" parent="50" vertex="1"><mxGeometry width="50" height="20" as="geometry"/></mxCell><mxCell id="54" value="&amp;lt;post_subscription&amp;gt;&lt;br&gt;&lt;span style=&quot;font-size: 10px&quot;&gt;&lt;i&gt;/api/v2/earn/orders&lt;/i&gt;&lt;/span&gt;" style="text;html=1;strokeColor=none;fillColor=none;align=center;verticalAlign=middle;whiteSpace=wrap;rounded=0;labelBackgroundColor=#2A2A2A;fontColor=#CCCCCC;" parent="1" vertex="1"><mxGeometry x="590" y="330" width="60" height="30" as="geometry"/></mxCell><mxCell id="55" value="&amp;lt;get_balance_interest_list&amp;gt;&lt;br&gt;&lt;span style=&quot;font-size: 10px&quot;&gt;&lt;i&gt;/api/v2/earn/balance/interest/records&lt;/i&gt;&lt;/span&gt;" style="text;html=1;strokeColor=none;fillColor=none;align=center;verticalAlign=middle;whiteSpace=wrap;rounded=0;labelBackgroundColor=#2A2A2A;fontColor=#FFFFFF;" parent="1" vertex="1"><mxGeometry x="610" y="370" width="60" height="30" as="geometry"/></mxCell><mxCell id="61" value="&amp;lt;post_redeem&amp;gt;&lt;br&gt;&lt;span style=&quot;font-size: 10px&quot;&gt;&lt;i&gt;/api/v2/earn/orders/redeem&lt;/i&gt;&lt;/span&gt;" style="text;html=1;strokeColor=none;fillColor=none;align=center;verticalAlign=middle;whiteSpace=wrap;rounded=0;labelBackgroundColor=#2A2A2A;fontColor=#CCCCCC;" parent="1" vertex="1"><mxGeometry x="590" y="413" width="60" height="30" as="geometry"/></mxCell><mxCell id="62" style="edgeStyle=none;html=1;entryX=0;entryY=0.188;entryDx=0;entryDy=0;entryPerimeter=0;fontSize=12;fontColor=#FFFFFF;" parent="1" source="33" target="20" edge="1"><mxGeometry relative="1" as="geometry"/></mxCell><mxCell id="63" style="edgeStyle=none;html=1;entryX=0.5;entryY=0.969;entryDx=0;entryDy=0;entryPerimeter=0;fontSize=12;fontColor=#FFFFFF;dashed=1;" parent="1" source="51" target="20" edge="1"><mxGeometry relative="1" as="geometry"><Array as="points"><mxPoint x="940" y="355"/></Array></mxGeometry></mxCell><mxCell id="66" value="" style="group" parent="1" vertex="1" connectable="0"><mxGeometry x="32.5" y="540" width="1007.5" height="540" as="geometry"/></mxCell><mxCell id="38" value="&lt;font&gt;&lt;span style=&quot;font-size: 12px&quot;&gt;&amp;nbsp;- Glossary:&lt;/span&gt;&lt;br&gt;&lt;br&gt;&lt;span style=&quot;font-size: 12px&quot;&gt;&lt;/span&gt;&lt;span style=&quot;font-size: 12px&quot;&gt;&amp;nbsp; &amp;nbsp;- apy (annual percentage yield)&lt;/span&gt;&lt;br&gt;&lt;span style=&quot;font-size: 12px&quot;&gt;&lt;/span&gt;&lt;span style=&quot;font-size: 12px&quot;&gt;&amp;nbsp; &amp;nbsp;- ccy (transaction currency name: e.g. BTC | USDT)&lt;/span&gt;&lt;br&gt;&lt;br&gt;&lt;span style=&quot;font-size: 12px&quot;&gt;&amp;nbsp;- Transactions to / from will still be manual.&lt;/span&gt;&lt;br&gt;&lt;br&gt;&lt;span style=&quot;font-size: 12px&quot;&gt;&amp;nbsp;- Asset:&lt;/span&gt;&lt;br&gt;&lt;br&gt;&lt;span style=&quot;font-size: 12px&quot;&gt;&lt;/span&gt;&lt;span style=&quot;font-size: 12px&quot;&gt;&amp;nbsp; &amp;nbsp;- GET balance show us details of each AUM.&lt;/span&gt;&lt;br&gt;&lt;br&gt;&lt;span style=&quot;font-size: 12px&quot;&gt;&amp;nbsp;- Wallet:&amp;nbsp;&lt;/span&gt;&lt;br&gt;&lt;br&gt;&lt;span style=&quot;font-size: 12px&quot;&gt;&amp;nbsp;&amp;nbsp;&lt;/span&gt;&lt;span style=&quot;font-size: 12px&quot;&gt;- There is no endpoint to create deposits but we can consult all of them.&lt;/span&gt;&lt;br&gt;&lt;span style=&quot;font-size: 12px&quot;&gt;&lt;/span&gt;&lt;span style=&quot;font-size: 12px&quot;&gt;&amp;nbsp; - Each deposit has an unique Id and status that we can use to relates to a user/bitso deposit.&lt;/span&gt;&lt;br&gt;&lt;span style=&quot;font-size: 12px&quot;&gt;&amp;nbsp; &amp;nbsp; &amp;nbsp;- It's possible to create a withdraw transaction related to a specific tuple &amp;lt;amount, addressId, ccy&amp;gt;.&lt;/span&gt;&lt;br&gt;&lt;span style=&quot;font-size: 12px&quot;&gt;&lt;/span&gt;&lt;span style=&quot;font-size: 12px&quot;&gt;&lt;/span&gt;&lt;span style=&quot;font-size: 12px&quot;&gt;&amp;nbsp; - We can get the unique id and status from each withdraw record.&lt;/span&gt;&lt;br&gt;&lt;span style=&quot;font-size: 12px&quot;&gt;&lt;/span&gt;&lt;span style=&quot;font-size: 12px&quot;&gt;&lt;/span&gt;&lt;span style=&quot;font-size: 12px&quot;&gt;&amp;nbsp; - Withdraw can only be sent to &quot;trusted&quot; addresses (GET Address List endpoint).&lt;/span&gt;&lt;br&gt;&lt;font color=&quot;#cccccc&quot; style=&quot;font-size: 12px&quot;&gt;&lt;span&gt;&lt;/span&gt;&lt;span&gt;&lt;/span&gt;&lt;span&gt;&lt;/span&gt;&amp;nbsp; - (I didn't find any information about fees for withdraw orders in the documentation).&amp;nbsp;&lt;br&gt;&lt;/font&gt;&lt;br&gt;&lt;span style=&quot;font-size: 12px&quot;&gt;&amp;nbsp;- Earn:&lt;/span&gt;&lt;br&gt;&lt;br&gt;&lt;span style=&quot;font-size: 12px&quot;&gt;&lt;/span&gt;&lt;font color=&quot;#cccccc&quot; style=&quot;font-size: 12px&quot;&gt;&amp;nbsp; &amp;nbsp;-&lt;/font&gt;&lt;span style=&quot;font-size: 12px&quot;&gt;&amp;nbsp;&lt;/span&gt;&lt;font color=&quot;#cccccc&quot; style=&quot;font-size: 12px&quot;&gt;There is no endpoint to subscribe to Flexible earnings but we can get info from APY earnings.&lt;br&gt;&lt;span&gt;&lt;/span&gt;&amp;nbsp; &amp;nbsp;-&amp;nbsp;(instant interest accrual upon deposit).&lt;br&gt;&lt;/font&gt;&lt;span style=&quot;font-size: 12px&quot;&gt;&lt;/span&gt;&lt;span style=&quot;font-size: 12px&quot;&gt;&amp;nbsp; &amp;nbsp;-&amp;nbsp; We can subscribe to / reedem from specifics earning product.&lt;/span&gt;&lt;br&gt;&lt;span style=&quot;font-size: 12px&quot;&gt;&lt;/span&gt;&lt;span style=&quot;font-size: 12px&quot;&gt;&lt;/span&gt;&lt;span style=&quot;font-size: 12px&quot;&gt;&amp;nbsp; &amp;nbsp;-&amp;nbsp; We can get info about the available earning products.&lt;/span&gt;&lt;br&gt;&lt;span style=&quot;font-size: 12px&quot;&gt;&lt;/span&gt;&lt;span style=&quot;font-size: 12px&quot;&gt;&lt;/span&gt;&lt;font color=&quot;#cccccc&quot; style=&quot;font-size: 12px&quot;&gt;&amp;nbsp; &amp;nbsp;- (I didn't find any information about fees of early redeem).&lt;br&gt;&lt;/font&gt;&lt;br&gt;&lt;b style=&quot;font-size: 12px&quot;&gt;(&lt;/b&gt;&lt;span style=&quot;font-size: 12px&quot;&gt;&lt;b&gt;Apparently the biggest challenge will be defining a good strategy to relate deposit earnings to specific users&lt;/b&gt;&lt;/span&gt;&lt;b style=&quot;font-size: 12px&quot;&gt;).&lt;/b&gt;&lt;br&gt;&lt;/font&gt;" style="rounded=0;whiteSpace=wrap;html=1;labelBackgroundColor=#2A2A2A;fontSize=10;fontColor=#FFFFFF;align=left;horizontal=1;verticalAlign=top;" parent="66" vertex="1"><mxGeometry x="19.374999999999996" y="30" width="968.75" height="510" as="geometry"/></mxCell><mxCell id="39" value="&lt;font style=&quot;font-size: 12px&quot;&gt;Notes&lt;/font&gt;" style="text;html=1;strokeColor=#2D7600;fillColor=#60a917;align=center;verticalAlign=middle;whiteSpace=wrap;rounded=0;labelBackgroundColor=none;fontSize=10;fontColor=#ffffff;" parent="66" vertex="1"><mxGeometry width="1007.5" height="30" as="geometry"/></mxCell></root></mxGraphModel></diagram></mxfile>